<svg width="24" height="24" viewBox="0 0 24 24" fill="none" xmlns="http://www.w3.org/2000/svg">
<path d="M8.38439 2.47919C8.90949 2.32087 9.47298 2.34717 9.98104 2.55371C10.4891 2.76026 10.9111 3.13459 11.1768 3.61439L11.2668 3.79319L12.06 5.55838C12.3011 6.09417 12.3793 6.689 12.285 7.26891C12.1907 7.84882 11.928 8.3882 11.5296 8.81998L11.3712 8.97838L10.1184 10.146C9.89279 10.3596 10.062 11.1864 10.8792 12.6C11.6124 13.872 12.2112 14.466 12.504 14.4984H12.5556L12.6192 14.4864L15.0792 13.734C15.4098 13.6326 15.7626 13.6286 16.0955 13.7224C16.4283 13.8163 16.7271 14.004 16.956 14.2632L17.0664 14.4012L18.6936 16.6572C19.0129 17.0992 19.1721 17.6369 19.1451 18.1815C19.118 18.7261 18.9063 19.2453 18.5448 19.6536L18.3984 19.8048L17.7468 20.4216C17.1627 20.9747 16.4322 21.3484 15.6419 21.4984C14.8516 21.6484 14.0349 21.5683 13.2888 21.2676C10.9668 20.3316 8.85719 18.1932 6.94079 14.874C5.02079 11.5464 4.2228 8.64598 4.5792 6.16199C4.68715 5.41097 4.99653 4.70322 5.47446 4.11394C5.9524 3.52465 6.58104 3.07584 7.2936 2.81519L7.52519 2.73839L8.38439 2.47919Z" fill="white"/>
</svg>
