<svg width="28" height="28" viewBox="0 0 28 28" fill="none" xmlns="http://www.w3.org/2000/svg">
<path d="M11.6589 5.8354C11.3886 5.83486 11.1266 5.92959 10.9185 6.10313C10.8014 6.20086 10.7045 6.32088 10.6336 6.45632C10.5626 6.59175 10.5189 6.73995 10.5049 6.89242C10.4909 7.04489 10.507 7.19863 10.5521 7.34484C10.5973 7.49106 10.6707 7.62687 10.7681 7.74449L15.9509 13.984L10.9532 20.2351C10.8571 20.3542 10.7854 20.4912 10.7421 20.6383C10.6988 20.7854 10.6848 20.9396 10.7009 21.0921C10.717 21.2446 10.7629 21.3925 10.836 21.5271C10.9091 21.6617 11.0079 21.7804 11.1267 21.8765C11.2464 21.9825 11.3866 22.0624 11.5385 22.1113C11.6903 22.1602 11.8506 22.1769 12.0092 22.1605C12.1678 22.1441 12.3213 22.0949 12.4601 22.016C12.5989 21.9371 12.72 21.8301 12.8158 21.7019L18.4035 14.7174C18.5736 14.5091 18.6667 14.2478 18.6667 13.9782C18.6667 13.7085 18.5736 13.4473 18.4035 13.239L12.6191 6.25447C12.5031 6.11359 12.3556 6.00223 12.1888 5.92942C12.022 5.85661 11.8404 5.82439 11.6589 5.8354Z" fill="#3C4563"/>
</svg>
