<svg width="24" height="24" viewBox="0 0 24 24" fill="none" xmlns="http://www.w3.org/2000/svg">
<path d="M7 21.0001H4C3.45 21.0001 3 20.5501 3 20.0001V8.69006C3 8.27006 3.25 7.90006 3.64 7.75006L14.64 3.52006C14.7921 3.46138 14.9561 3.44076 15.118 3.45999C15.2798 3.47921 15.4345 3.53771 15.5686 3.63038C15.7027 3.72305 15.8121 3.84708 15.8873 3.99169C15.9624 4.13629 16.0012 4.29708 16 4.46006V10.0001H8C7.45 10.0001 7 10.4501 7 11.0001V21.0001ZM17 12.0001H10C9.45 12.0001 9 12.4501 9 13.0001V20.0001C9 20.5501 9.45 21.0001 10 21.0001H14V17.0001C14 16.4501 14.45 16.0001 15 16.0001C15.55 16.0001 16 16.4501 16 17.0001V21.0001H20C20.55 21.0001 21 20.5501 21 20.0001V12.0001C21 10.9001 20.1 10.0001 19 10.0001C17.9 10.0001 17 10.9001 17 12.0001Z" fill="#888B97"/>
</svg>
